<svg width="22" height="22" viewBox="0 0 22 22" fill="none" xmlns="http://www.w3.org/2000/svg">
<g clip-path="url(#clip0)">
<path d="M6.08226 0.140082C5.89234 -0.0433862 5.58964 -0.0380969 5.40617 0.151826C5.22723 0.337131 5.22723 0.630868 5.40617 0.816129L15.5866 10.9974L5.40523 21.1778C5.2153 21.3613 5.21006 21.664 5.39348 21.8539C5.57695 22.0438 5.87961 22.0491 6.06957 21.8657C6.07356 21.8618 6.07746 21.8579 6.08132 21.8539L16.6002 11.335C16.7869 11.1483 16.7869 10.8457 16.6002 10.6589L6.08226 0.140082Z" fill="#F44336"/>
<path d="M5.74365 21.9946C5.47958 21.9951 5.26514 21.7814 5.26465 21.5173C5.26443 21.39 5.31499 21.2679 5.40513 21.178L15.5864 10.9976L5.40513 0.817256C5.21817 0.630292 5.21817 0.327187 5.40513 0.140223C5.59209 -0.046741 5.8952 -0.046741 6.08216 0.140223L16.6011 10.6591C16.7877 10.8458 16.7877 11.1485 16.6011 11.3352L6.08216 21.8541C5.99251 21.944 5.87068 21.9946 5.74365 21.9946Z" fill="#CACACA"/>
</g>
<defs>
<clipPath id="clip0">
<rect width="22" height="22" fill="white"/>
</clipPath>
</defs>
</svg>
