<svg width="22" height="22" viewBox="0 0 22 22" fill="none" xmlns="http://www.w3.org/2000/svg">
<g clip-path="url(#clip0)">
<path d="M15.9177 21.8599C16.1077 22.0434 16.4104 22.0381 16.5938 21.8482C16.7728 21.6629 16.7728 21.3691 16.5938 21.1839L6.41345 11.0025L16.5948 0.82217C16.7847 0.638702 16.7899 0.336046 16.6065 0.146078C16.4231 -0.0438443 16.1204 -0.0490876 15.9304 0.134334C15.9264 0.138189 15.9225 0.14209 15.9187 0.146078L5.39978 10.665C5.21313 10.8517 5.21313 11.1543 5.39978 11.3411L15.9177 21.8599Z" fill="#F44336"/>
<path d="M16.2564 0.00537105C16.5204 0.00487707 16.7349 0.218601 16.7354 0.482664C16.7356 0.609966 16.685 0.732115 16.5949 0.822033L6.41355 11.0024L16.5949 21.1827C16.7818 21.3697 16.7818 21.6728 16.5949 21.8598C16.4079 22.0467 16.1048 22.0467 15.9178 21.8598L5.39894 11.3409C5.21229 11.1542 5.21229 10.8515 5.39894 10.6648L15.9178 0.145941C16.0075 0.0559768 16.1293 0.00537104 16.2564 0.00537105Z" fill="#17BA9B"/>
</g>
<defs>
<clipPath id="clip0">
<rect width="22" height="22" fill="white" transform="translate(22 22) rotate(-180)"/>
</clipPath>
</defs>
</svg>
