<svg width="43" height="32" viewBox="0 0 43 32" fill="none" xmlns="http://www.w3.org/2000/svg">
<path d="M15.2124 0.831998L17.2284 3.424C12.6204 7.552 9.74038 12.352 8.58838 17.824C10.5084 17.824 11.9484 18.4 12.9084 19.552C13.8684 20.704 14.3484 22.336 14.3484 24.448C14.3484 26.56 13.5324 28.336 11.9004 29.776C10.3644 31.216 8.58838 31.936 6.57238 31.936C4.65238 31.936 3.16438 31.408 2.10838 30.352C1.05238 29.2 0.524375 27.712 0.524375 25.888C0.524375 17.344 5.42038 8.992 15.2124 0.831998ZM27.836 31.936L25.82 29.344C30.62 25.408 33.5 20.608 34.46 14.944C32.636 14.944 31.196 14.416 30.14 13.36C29.18 12.208 28.7 10.624 28.7 8.60799C28.7 6.496 29.468 4.672 31.004 3.13599C32.636 1.6 34.412 0.831998 36.332 0.831998C38.348 0.831998 39.884 1.408 40.94 2.55999C41.996 3.616 42.524 5.056 42.524 6.88C42.524 11.008 41.468 14.992 39.356 18.832C37.34 22.672 35.372 25.504 33.452 27.328C31.628 29.056 29.756 30.592 27.836 31.936Z" fill="#FF9900"/>
</svg>
