<svg width="30" height="30" viewBox="0 0 30 30" fill="none" xmlns="http://www.w3.org/2000/svg">
<path d="M29.1211 0H0.878906C0.393516 0 0 0.393516 0 0.878906V29.1211C0 29.6065 0.393516 30 0.878906 30H29.1211C29.6065 30 30 29.6065 30 29.1211V0.878906C30 0.393516 29.6065 0 29.1211 0ZM18.1444 5.90561C18.3078 5.74207 18.5346 5.64832 18.7655 5.64832C18.9969 5.64832 19.2237 5.74207 19.3871 5.90561C19.5506 6.06967 19.6449 6.29584 19.6449 6.52723C19.6449 6.75867 19.5506 6.9849 19.3871 7.14891C19.2237 7.31238 18.9969 7.40613 18.7655 7.40613C18.5346 7.40613 18.3078 7.31238 18.1444 7.14891C17.9803 6.98543 17.8866 6.75867 17.8866 6.52723C17.8866 6.29584 17.9803 6.06967 18.1444 5.90561ZM13.4369 5.90561C13.6004 5.74207 13.8271 5.64832 14.0586 5.64832C14.29 5.64832 14.5162 5.74207 14.6803 5.90561C14.8437 6.06967 14.9375 6.29584 14.9375 6.52723C14.9375 6.75867 14.8437 6.98543 14.6803 7.14891C14.5161 7.31238 14.29 7.40613 14.0586 7.40613C13.8271 7.40613 13.6004 7.31238 13.4369 7.14891C13.2734 6.98543 13.1797 6.75867 13.1797 6.52723C13.1797 6.29584 13.2734 6.06967 13.4369 5.90561ZM9.35156 11.2969H20.6484C21.1338 11.2969 21.5273 11.6904 21.5273 12.1758C21.5273 12.6612 21.1338 13.0547 20.6484 13.0547H9.35156C8.86617 13.0547 8.47266 12.6612 8.47266 12.1758C8.47266 11.6904 8.86611 11.2969 9.35156 11.2969ZM23.4727 24.3516H6.52734C6.04195 24.3516 5.64844 23.958 5.64844 23.4727C5.64844 22.9873 6.04195 22.5938 6.52734 22.5938H23.4727C23.958 22.5938 24.3516 22.9873 24.3516 23.4727C24.3516 23.958 23.958 24.3516 23.4727 24.3516ZM23.4727 18.7031H6.52734C6.04195 18.7031 5.64844 18.3096 5.64844 17.8242C5.64844 17.3388 6.04195 16.9453 6.52734 16.9453H23.4727C23.958 16.9453 24.3516 17.3388 24.3516 17.8242C24.3516 18.3096 23.958 18.7031 23.4727 18.7031ZM24.0939 7.14896C23.9305 7.31244 23.7038 7.40619 23.4728 7.40619C23.2414 7.40619 23.0146 7.31244 22.8512 7.14896C22.6877 6.98549 22.5939 6.75873 22.5939 6.52729C22.5939 6.2959 22.6877 6.06967 22.8512 5.90566C23.0146 5.74213 23.2414 5.64838 23.4728 5.64838C23.7037 5.64838 23.9305 5.74213 24.0939 5.90566C24.258 6.06973 24.3517 6.2959 24.3517 6.52729C24.3517 6.75873 24.258 6.98549 24.0939 7.14896Z" fill="#17BA9B"/>
</svg>
