<?xml version="1.0" encoding="utf-8"?><svg xmlns="http://www.w3.org/2000/svg" xmlns:xlink="http://www.w3.org/1999/xlink"><symbol viewBox="0 0 12 7" id="arrow" xmlns="http://www.w3.org/2000/svg"><path d="M1 1l5 5 5-5"/></symbol><symbol viewBox="0 0 22 22" id="arrowLeft" xmlns="http://www.w3.org/2000/svg"><g clip-path="url(#bclip0)"><path d="M15.918 21.86a.478.478 0 00.676-.676L6.414 11.002 16.593.822a.478.478 0 10-.675-.676L5.399 10.665a.478.478 0 000 .676l10.52 10.519z"/><path d="M16.256.005a.478.478 0 01.339.817L6.414 11.002l10.18 10.18a.479.479 0 01-.676.678L5.398 11.34a.478.478 0 010-.675L15.919.145a.481.481 0 01.338-.14z"/></g><defs><clipPath id="bclip0"><path transform="rotate(-180 11 11)" d="M0 0h22v22H0z"/></clipPath></defs></symbol><symbol viewBox="0 0 22 22" id="arrowRight" xmlns="http://www.w3.org/2000/svg"><g clip-path="url(#cclip0)"><path d="M6.082.14a.478.478 0 00-.676.676l10.18 10.181-10.18 10.18a.478.478 0 10.675.677l10.52-10.519a.478.478 0 000-.676L6.081.14z"/><path d="M5.744 21.995a.478.478 0 01-.339-.817l10.181-10.18L5.406.818A.479.479 0 116.081.14l10.52 10.52a.478.478 0 010 .675l-10.52 10.52a.478.478 0 01-.338.14z"/></g><defs><clipPath id="cclip0"><path d="M0 0h22v22H0z"/></clipPath></defs></symbol><symbol viewBox="0 0 27 27" id="bubble" xmlns="http://www.w3.org/2000/svg"><g clip-path="url(#dclip0)"><path d="M14.457 1.928C7.53 1.928 1.915 7.108 1.915 13.5c0 1.736.415 3.383 1.158 4.86L.106 23.727a.847.847 0 00.965 1.226l6.495-1.783c1.977 1.203 4.346 1.903 6.891 1.903C21.385 25.072 27 19.892 27 13.5c0-6.391-5.616-11.572-12.543-11.572zm-1.17 6.931a1.13 1.13 0 012.256 0v6.16a1.13 1.13 0 01-1.128 1.128 1.13 1.13 0 01-1.128-1.129V8.86zm1.128 10.41a1.243 1.243 0 01-1.242-1.241 1.243 1.243 0 012.483 0c0 .684-.557 1.24-1.241 1.24z"/></g><defs><clipPath id="dclip0"><path d="M0 0h27v27H0z"/></clipPath></defs></symbol><symbol viewBox="0 0 28 28" id="clock" xmlns="http://www.w3.org/2000/svg"><path d="M14 0C6.28 0 0 6.28 0 14s6.28 14 14 14 14-6.28 14-14S21.72 0 14 0zm6.658 21.241a1.164 1.164 0 01-1.65 0l-5.833-5.833a1.161 1.161 0 01-.342-.825V7a1.166 1.166 0 112.334 0v7.1l5.491 5.492a1.165 1.165 0 010 1.65z"/></symbol><symbol viewBox="0 0 28 28" id="dollar" xmlns="http://www.w3.org/2000/svg"><path d="M14 0C6.267 0 0 6.268 0 14s6.267 14 14 14 14-6.269 14-14S21.732 0 14 0zm.848 20.236v1.62a.434.434 0 01-.45.438h-1.081c-.253 0-.457-.184-.457-.437v-1.478c-.995-.045-1.998-.257-2.757-.546a.865.865 0 01-.531-1.023l.176-.686a.866.866 0 011.151-.592 6.95 6.95 0 002.49.483c1.161 0 1.956-.448 1.956-1.264 0-.774-.652-1.263-2.16-1.773-2.18-.734-3.674-1.752-3.674-3.73 0-1.792 1.27-3.199 3.439-3.627V6.143c0-.253.216-.48.47-.48h1.08c.253 0 .439.227.439.48v1.335c.948.04 1.633.182 2.206.368a.868.868 0 01.575 1.037l-.155.615a.868.868 0 01-1.118.603 6.24 6.24 0 00-2.06-.34c-1.324 0-1.752.57-1.752 1.142 0 .672.713 1.1 2.445 1.752 2.425.856 3.4 1.977 3.4 3.81-.001 1.814-1.283 3.364-3.633 3.771z"/></symbol><symbol viewBox="0 0 28 28" id="employee" xmlns="http://www.w3.org/2000/svg"><g clip-path="url(#gclip0)"><path d="M22.167 14a3.5 3.5 0 100-7 3.5 3.5 0 000 7zM5.833 14a3.5 3.5 0 100-7 3.5 3.5 0 000 7z"/><path d="M14 12.833A4.667 4.667 0 1014 3.5a4.667 4.667 0 000 9.333zm11.667 2.334H21.54c.411.708.627 1.513.627 2.333v8.167h4.666A1.167 1.167 0 0028 24.5v-7a2.334 2.334 0 00-2.333-2.333zm-19.206 0H2.333A2.333 2.333 0 000 17.5v7a1.166 1.166 0 001.167 1.167h4.666V17.5c0-.82.216-1.625.628-2.333z"/><path d="M17.5 12.833h-1.167l-2.333 7-2.333-7H10.5a3.5 3.5 0 00-3.5 3.5v10.5A1.167 1.167 0 008.167 28h11.666A1.167 1.167 0 0021 26.833v-10.5a3.5 3.5 0 00-3.5-3.5z"/></g><defs><clipPath id="gclip0"><path d="M0 0h28v28H0z"/></clipPath></defs></symbol><symbol viewBox="0 0 30 30" id="fast" xmlns="http://www.w3.org/2000/svg"><g clip-path="url(#hclip0)"><path d="M5.068 10.605H1.622v1.758h3.446v-1.758zm0 7.032H1.622v1.758h3.446v-1.758zm0-3.516H0v1.758h5.068V14.12zM18.413 3.413C12.013 3.413 6.826 8.6 6.826 15c0 6.4 5.187 11.587 11.587 11.587C24.813 26.587 30 21.4 30 15c0-6.4-5.188-11.587-11.587-11.587zm3.654 16.346l-4.87-3.319V9.329h1.758v6.182l4.102 2.795-.99 1.453z"/></g><defs><clipPath id="hclip0"><path d="M0 0h30v30H0z"/></clipPath></defs></symbol><symbol viewBox="0 0 20 20" id="fb" xmlns="http://www.w3.org/2000/svg"><path d="M17 1H3c-1.1 0-2 .9-2 2v14c0 1.101.9 2 2 2h7v-7H8V9.525h2v-2.05c0-2.164 1.212-3.684 3.766-3.684l1.803.002v2.605h-1.197c-.994 0-1.372.746-1.372 1.438v1.69h2.568L15 12h-2v7h4c1.1 0 2-.899 2-2V3c0-1.1-.9-2-2-2z"/></symbol><symbol viewBox="0 0 27 28" id="hourglass" xmlns="http://www.w3.org/2000/svg"><path d="M17.753 11.09c1.79-1.692 4.211-3.98 4.432-9.45h1.598V0H3.217v1.64h1.598c.22 5.47 2.642 7.758 4.432 9.45 1.2 1.136 1.88 1.831 1.88 2.91 0 1.079-.68 1.774-1.88 2.91-1.79 1.692-4.211 3.98-4.432 9.45H3.217V28h20.566v-1.64h-1.598c-.22-5.47-2.642-7.758-4.432-9.45-1.2-1.136-1.88-1.831-1.88-2.91 0-1.079.68-1.774 1.88-2.91zm-5.043 9.06a3.888 3.888 0 00-.721.23l-4.845 2.078c.79-2.086 2.065-3.291 3.17-4.335 1.232-1.166 2.396-2.266 2.396-4.122v6.149zm3.978-2.027c1.105 1.044 2.38 2.25 3.17 4.335l-4.845-2.079a3.903 3.903 0 00-.721-.23V14c0 1.856 1.164 2.956 2.396 4.122zM7.115 5.469c-.383-1.034-.647-2.282-.716-3.828h14.202c-.07 1.546-.333 2.794-.716 3.828H7.115z"/></symbol><symbol viewBox="0 0 30 30" id="messages" xmlns="http://www.w3.org/2000/svg"><path d="M5.076 16.969c0 .324.031.64.076.952A5.794 5.794 0 010 12.164V10.16c0-3.2 2.594-5.794 5.794-5.794h10.717a5.793 5.793 0 015.47 3.898H11.778a6.708 6.708 0 00-6.7 6.7l-.001 2.006zM30 24.546l-.479.433c-.474.43-1.215.656-2.143.656-1.47 0-3.593-.629-5.108-2.028H12.154a6.254 6.254 0 01-6.248-6.248v-2.005a6.255 6.255 0 016.248-6.248h10.717a6.255 6.255 0 016.248 6.248v2.005a6.254 6.254 0 01-1.834 4.412c.372 1.082 1.093 1.912 2.146 2.472l.569.303zm-18.47-9.468h9.011v-1.563h-9.01v1.563zm12.518 2.063H11.531v1.562h12.517V17.14z"/></symbol><symbol viewBox="0 0 19 19" id="phone" xmlns="http://www.w3.org/2000/svg"><g clip-path="url(#lclip0)"><path d="M18.483 13.944l-2.652-2.651c-.947-.947-2.556-.569-2.935.663-.284.852-1.231 1.325-2.084 1.136-1.893-.474-4.45-2.936-4.924-4.924-.284-.853.284-1.8 1.137-2.084 1.23-.379 1.61-1.988.663-2.935L5.036.497c-.758-.663-1.894-.663-2.557 0L.68 2.297C-1.12 4.19.87 9.208 5.32 13.66c4.45 4.45 9.47 6.534 11.364 4.64l1.799-1.8c.663-.757.663-1.893 0-2.556z"/></g><defs><clipPath id="lclip0"><path d="M0 0h19v19H0z"/></clipPath></defs></symbol><symbol viewBox="0 0 27 27" id="pin" xmlns="http://www.w3.org/2000/svg"><g clip-path="url(#mclip0)"><path d="M21.493 4.624C19.855 1.796 16.944.07 13.708.003a10.1 10.1 0 00-.416 0c-3.236.066-6.147 1.793-7.785 4.621a9.4 9.4 0 00-.123 9.288l6.695 12.255.01.016A1.61 1.61 0 0013.5 27a1.612 1.612 0 001.42-.833l6.696-12.255a9.4 9.4 0 00-.123-9.288zm-7.993 7.61a3.801 3.801 0 01-3.797-3.796A3.801 3.801 0 0113.5 4.641a3.801 3.801 0 013.797 3.797 3.801 3.801 0 01-3.797 3.797z"/></g><defs><clipPath id="mclip0"><path d="M0 0h27v27H0z"/></clipPath></defs></symbol><symbol viewBox="0 0 20 20" id="question" xmlns="http://www.w3.org/2000/svg"><g clip-path="url(#nclip0)"><path d="M9.73 0c3.46 0 6.865 1.593 6.865 5.404 0 3.515-4.027 4.866-4.892 6.136-.649.945-.432 2.272-2.216 2.272-1.162 0-1.73-.945-1.73-1.81 0-3.219 4.729-3.947 4.729-6.597 0-1.459-.97-2.324-2.593-2.324-3.46 0-2.109 3.567-4.73 3.567-.945 0-1.757-.568-1.757-1.648 0-2.65 3.026-5 6.324-5zm-.135 15.566c1.215 0 2.217 1 2.217 2.218S10.812 20 9.595 20a2.225 2.225 0 01-2.217-2.217 2.227 2.227 0 012.217-2.217z"/></g><defs><clipPath id="nclip0"><path d="M0 0h20v20H0z"/></clipPath></defs></symbol><symbol viewBox="0 0 27 27" id="questionBubble" xmlns="http://www.w3.org/2000/svg"><g clip-path="url(#oclip0)"><path d="M14.458 1.928C7.53 1.928 1.915 7.11 1.915 13.5c0 1.736.416 3.383 1.158 4.86L.106 23.727a.847.847 0 00.965 1.226l6.495-1.783c1.978 1.203 4.346 1.903 6.892 1.903C21.385 25.072 27 19.892 27 13.5c0-6.39-5.614-11.572-12.542-11.572zm-.021 17.517a1.243 1.243 0 01-1.241-1.241c0-.685.556-1.242 1.24-1.242a1.243 1.243 0 010 2.483zm1.3-5.905a4.753 4.753 0 00-.336.245v1.297a.965.965 0 01-1.928 0v-1.397c0-.932.68-1.397 1.177-1.736.536-.366.89-.608.89-1.364a1.104 1.104 0 00-2.206 0 .965.965 0 01-1.927 0c0-1.67 1.36-3.03 3.03-3.03 1.67 0 3.03 1.36 3.03 3.03 0 1.773-1.083 2.513-1.73 2.955z"/></g><defs><clipPath id="oclip0"><path d="M0 0h27v27H0z"/></clipPath></defs></symbol><symbol viewBox="0 0 43 32" id="quote" xmlns="http://www.w3.org/2000/svg"><path d="M15.212.832l2.016 2.592c-4.608 4.128-7.488 8.928-8.64 14.4 1.92 0 3.36.576 4.32 1.728.96 1.152 1.44 2.784 1.44 4.896s-.816 3.888-2.448 5.328c-1.536 1.44-3.312 2.16-5.328 2.16-1.92 0-3.408-.528-4.464-1.584C1.052 29.2.524 27.712.524 25.888.524 17.344 5.42 8.992 15.212.832zm12.624 31.104l-2.016-2.592c4.8-3.936 7.68-8.736 8.64-14.4-1.824 0-3.264-.528-4.32-1.584-.96-1.152-1.44-2.736-1.44-4.752 0-2.112.768-3.936 2.304-5.472C32.636 1.6 34.412.832 36.332.832c2.016 0 3.552.576 4.608 1.728 1.056 1.056 1.584 2.496 1.584 4.32 0 4.128-1.056 8.112-3.168 11.952-2.016 3.84-3.984 6.672-5.904 8.496a49.223 49.223 0 01-5.616 4.608z"/></symbol><symbol viewBox="0 0 28 28" id="search" xmlns="http://www.w3.org/2000/svg"><path d="M2.03 25.97a.952.952 0 001.35 0l5.558-5.559a10.476 10.476 0 006.759 2.448c2.818 0 5.47-1.099 7.463-3.092a10.487 10.487 0 003.09-7.463c0-2.818-1.097-5.47-3.09-7.463a10.487 10.487 0 00-7.463-3.091c-2.819 0-5.47 1.098-7.463 3.091a10.487 10.487 0 00-3.092 7.463c0 2.498.863 4.865 2.447 6.758l-5.559 5.56a.954.954 0 000 1.349zm19.78-7.552c-3.37 3.372-8.856 3.371-12.227 0-3.371-3.37-3.371-8.857 0-12.228a8.618 8.618 0 016.114-2.528A8.62 8.62 0 0121.81 6.19c3.37 3.371 3.37 8.857 0 12.228z"/></symbol><symbol viewBox="0 0 21 20" id="te" xmlns="http://www.w3.org/2000/svg"><g clip-path="url(#rclip0)"><path d="M7.899 12.652l-.333 4.654c.476 0 .682-.204.93-.448l2.234-2.12 4.628 3.367c.849.47 1.447.223 1.676-.776l3.038-14.143v-.001c.27-1.247-.453-1.734-1.28-1.428L.934 8.549C-.284 9.02-.266 9.694.727 10l4.566 1.41 10.604-6.592c.5-.328.953-.146.58.182l-8.578 7.652z"/></g><defs><clipPath id="rclip0"><path d="M0 0h20.131v20H0z"/></clipPath></defs></symbol><symbol viewBox="0 0 24 24" id="user" xmlns="http://www.w3.org/2000/svg"><path d="M12 12.889A6.444 6.444 0 1012 0a6.444 6.444 0 000 12.889zm3.054-3.894c-.293.97-1.549 1.698-3.054 1.698s-2.76-.729-3.054-1.698h6.108zm7.835 10.56v2.125c0 .315-.232.68-.52.809C21.256 22.985 18.215 24 12 24c-6.214 0-9.254-1.015-10.37-1.511-.287-.128-.519-.494-.519-.81v-2.123c0-3.184 2.424-5.825 5.517-6.178a.518.518 0 01.31.085A8.604 8.604 0 0012 15.11a8.603 8.603 0 005.063-1.648.516.516 0 01.31-.085c3.092.354 5.516 2.994 5.516 6.178z"/></symbol><symbol viewBox="0 0 20 20" id="vk" xmlns="http://www.w3.org/2000/svg"><g clip-path="url(#tclip0)"><path fill-rule="evenodd" clip-rule="evenodd" d="M17.802 12.3s1.617 1.597 2.017 2.336c.008.01.014.023.018.035.163.273.203.487.123.645-.135.261-.592.392-.747.403h-2.858c-.199 0-.613-.052-1.117-.4-.385-.269-.768-.712-1.139-1.145-.554-.643-1.033-1.2-1.518-1.2a.546.546 0 00-.18.03c-.367.115-.833.638-.833 2.031 0 .436-.344.684-.585.684H9.674c-.446 0-2.768-.156-4.827-2.327C2.324 10.734.058 5.402.037 5.355c-.142-.345.154-.533.474-.533h2.886c.387 0 .513.234.601.444.102.241.48 1.205 1.1 2.288 1.004 1.762 1.621 2.48 2.114 2.48a.528.528 0 00.264-.07c.644-.355.524-2.655.494-3.129 0-.092 0-1.027-.33-1.479-.237-.324-.639-.45-.882-.496.065-.094.203-.238.38-.323.441-.22 1.238-.252 2.03-.252h.438c.858.012 1.08.067 1.392.146.628.15.64.557.585 1.943-.016.396-.033.842-.033 1.367 0 .112-.005.237-.005.364-.019.711-.044 1.512.458 1.841a.41.41 0 00.217.062c.174 0 .695 0 2.108-2.425.62-1.07 1.1-2.334 1.133-2.429.028-.053.112-.202.214-.262a.479.479 0 01.236-.056h3.395c.37 0 .621.056.67.196.082.227-.016.92-1.566 3.016-.26.35-.49.651-.69.915-1.406 1.844-1.406 1.937.082 3.337z"/></g><defs><clipPath id="tclip0"><path d="M0 0h20v20H0z"/></clipPath></defs></symbol><symbol viewBox="0 0 27 27" id="warningBubble" xmlns="http://www.w3.org/2000/svg"><g clip-path="url(#uclip0)"><path d="M14.457 1.928C7.53 1.928 1.915 7.108 1.915 13.5c0 1.736.415 3.383 1.158 4.86L.106 23.727a.847.847 0 00.965 1.226l6.495-1.783c1.977 1.203 4.346 1.903 6.891 1.903C21.385 25.072 27 19.892 27 13.5c0-6.391-5.616-11.572-12.543-11.572zm-1.17 6.931a1.13 1.13 0 012.256 0v6.16a1.13 1.13 0 01-1.128 1.128 1.13 1.13 0 01-1.128-1.129V8.86zm1.128 10.41a1.243 1.243 0 01-1.242-1.241 1.243 1.243 0 012.483 0c0 .684-.557 1.24-1.241 1.24z"/></g><defs><clipPath id="uclip0"><path d="M0 0h27v27H0z"/></clipPath></defs></symbol><symbol viewBox="0 0 30 30" id="website" xmlns="http://www.w3.org/2000/svg"><path d="M29.121 0H.88A.879.879 0 000 .879V29.12c0 .486.394.879.879.879H29.12a.879.879 0 00.879-.879V.88a.879.879 0 00-.878-.88zM18.144 5.906a.885.885 0 01.622-.258.884.884 0 01.879.879.887.887 0 01-.258.622.885.885 0 01-.622.257.883.883 0 01-.879-.879c0-.231.094-.457.258-.621zm-4.707 0a.885.885 0 01.622-.258.884.884 0 01.879.879.886.886 0 01-.258.622.887.887 0 01-.621.257.885.885 0 01-.622-.257.885.885 0 01-.257-.622c0-.231.093-.457.257-.621zm-4.085 5.39h11.296a.879.879 0 010 1.759H9.352a.879.879 0 010-1.758zm14.12 13.056H6.528a.879.879 0 010-1.758h16.946a.879.879 0 010 1.758zm0-5.649H6.528a.879.879 0 010-1.758h16.946a.879.879 0 010 1.758zm.622-11.554a.885.885 0 01-.621.257.885.885 0 01-.622-.257.885.885 0 01-.257-.622c0-.231.094-.457.257-.621a.885.885 0 01.622-.258.884.884 0 01.879.879.883.883 0 01-.258.622z"/></symbol><symbol viewBox="0 0 21 20" id="wh" xmlns="http://www.w3.org/2000/svg"><g clip-path="url(#wclip0)"><path d="M10.068 0h-.005C4.513 0 0 4.485 0 10c0 2.188.71 4.215 1.916 5.861L.662 19.576l3.869-1.229A10.025 10.025 0 0010.068 20c5.55 0 10.063-4.486 10.063-10S15.618 0 10.068 0zm5.857 14.121c-.243.681-1.207 1.246-1.976 1.412-.526.11-1.213.2-3.525-.753-2.958-1.217-4.863-4.204-5.011-4.397-.143-.194-1.196-1.582-1.196-3.017 0-1.435.734-2.133 1.03-2.433.242-.247.644-.36 1.029-.36.124 0 .236.007.337.012.296.013.444.03.64.494.242.581.833 2.016.904 2.163.071.148.143.348.042.542-.094.2-.177.288-.325.458-.149.17-.29.3-.438.483-.136.159-.29.329-.118.623.17.287.762 1.246 1.633 2.016 1.123.993 2.034 1.311 2.36 1.446.243.1.532.076.71-.111.225-.242.503-.642.786-1.035.201-.283.455-.318.722-.218.272.094 1.71.8 2.006.947.295.147.49.217.562.34.07.124.07.706-.172 1.388z"/></g><defs><clipPath id="wclip0"><path d="M0 0h20.131v20H0z"/></clipPath></defs></symbol></svg>